<?xml version="1.0" standalone="no"?>
<!DOCTYPE svg PUBLIC "-//W3C//DTD SVG 20010904//EN"
 "http://www.w3.org/TR/2001/REC-SVG-20010904/DTD/svg10.dtd">
<svg version="1.0" xmlns="http://www.w3.org/2000/svg"
 width="256.000000pt" height="256.000000pt" viewBox="0 0 256.000000 256.000000"
 preserveAspectRatio="xMidYMid meet">
<metadata>
Created by potrace 1.16, written by Peter Selinger 2001-2019
</metadata>
<g transform="translate(0.000000,256.000000) scale(0.100000,-0.100000)"
fill="#000000" stroke="none">
<path d="M830 2490 c-19 -6 -9 -8 37 -9 78 -1 157 -18 206 -43 51 -25 42 -32
-18 -14 -51 16 -51 15 8 -28 21 -15 36 -31 33 -34 -3 -3 2 -15 11 -26 10 -11
-4 -4 -32 15 -57 40 -95 58 -77 36 7 -8 9 -17 5 -21 -4 -4 0 -4 9 -1 9 4 18 2
22 -3 8 -13 -23 -12 -76 3 -27 8 -48 10 -48 5 0 -4 6 -11 13 -14 6 -3 -4 -3
-23 1 -55 10 -143 11 -167 2 -22 -8 -98 -1 -88 9 3 3 44 13 93 23 48 9 78 18
68 18 -11 1 -17 3 -14 6 6 6 111 -9 143 -21 14 -5 17 -4 10 3 -19 20 -91 37
-185 43 l-95 7 90 1 c50 1 121 -5 160 -13 82 -18 82 -18 69 -6 -16 15 -80 31
-160 40 -152 17 -335 -53 -468 -178 -58 -55 -112 -128 -102 -138 2 -3 12 9 21
26 9 18 20 29 25 26 5 -3 18 8 29 25 10 17 21 30 23 28 8 -5 38 24 33 33 -8
12 80 69 141 90 76 27 90 23 20 -6 -64 -27 -86 -42 -46 -31 14 4 2 -7 -27 -24
-64 -39 -163 -143 -193 -204 -27 -57 -31 -129 -8 -181 9 -22 19 -57 23 -77 3
-21 17 -50 31 -65 l25 -28 -21 35 c-24 42 -24 78 -1 150 l18 55 -5 -60 c-5
-68 11 -163 33 -191 14 -17 14 -17 5 9 -5 16 -10 47 -9 70 l0 42 14 -43 c7
-24 20 -58 29 -76 9 -19 16 -48 16 -64 0 -17 5 -34 10 -37 6 -3 10 -37 10 -74
0 -52 -6 -79 -25 -118 -37 -74 -39 -75 -133 -61 -59 9 -93 9 -122 2 -21 -6
-43 -7 -47 -3 -5 5 -35 11 -68 15 -56 7 -59 6 -43 -9 11 -12 26 -15 46 -11 22
4 47 -2 87 -21 32 -15 74 -33 94 -40 97 -36 236 -104 214 -105 -6 0 -15 5 -18
10 -3 6 -11 10 -18 10 -6 0 -1 -7 11 -16 12 -8 27 -12 32 -9 6 4 48 -19 93
-49 96 -66 167 -126 150 -126 -7 0 -13 -5 -13 -11 0 -8 5 -7 15 1 13 11 20 9
40 -10 19 -18 22 -26 13 -33 -9 -6 -8 -7 4 -3 12 3 39 -12 80 -46 84 -69 83
-67 75 -74 -6 -6 -68 28 -94 51 -6 5 -45 34 -87 63 -50 36 -73 58 -69 68 3 8
0 14 -7 14 -6 0 -8 -5 -4 -11 4 -7 1 -10 -7 -7 -8 3 -14 11 -14 18 0 7 -11 14
-25 14 -14 1 -56 22 -95 46 -75 48 -302 158 -373 180 -23 7 -42 19 -42 27 0 7
-4 13 -10 13 -5 0 -10 -4 -10 -9 0 -5 -18 -7 -40 -4 -33 5 -40 3 -40 -11 0 -9
8 -16 18 -16 85 -1 490 -192 639 -302 29 -21 56 -38 61 -38 17 0 34 -28 22
-35 -13 -8 -72 14 -66 24 3 4 -3 7 -12 8 -33 2 -156 52 -316 129 -28 13 -55
24 -62 24 -6 0 -41 14 -78 31 -59 27 -159 58 -194 59 -9 0 -12 -14 -11 -50 2
-27 4 -50 5 -50 1 0 53 -18 116 -41 112 -40 139 -49 168 -53 8 -2 33 -10 55
-20 42 -18 99 -33 340 -91 207 -50 307 -82 361 -117 68 -43 46 -46 -39 -4 -41
20 -83 36 -94 36 -10 0 -24 5 -31 12 -7 7 -12 8 -12 2 0 -5 -5 -2 -10 6 -8 12
-12 12 -18 3 -6 -10 -20 -10 -63 3 -29 9 -64 17 -76 17 -13 1 -23 5 -23 9 0 4
-8 7 -17 7 -41 2 -62 6 -61 11 1 18 -4 21 -18 9 -12 -10 -17 -10 -23 -1 -4 7
-33 13 -64 14 -31 2 -57 7 -57 11 0 5 -4 6 -8 3 -11 -7 -204 63 -266 96 -13 7
-16 6 -11 -3 5 -7 4 -10 -2 -6 -20 13 -66 30 -108 42 -17 4 -33 13 -37 19 -4
6 -8 -1 -8 -17 0 -23 5 -29 30 -33 17 -4 27 -11 23 -17 -3 -5 -1 -7 4 -4 13 8
96 -20 183 -63 154 -74 189 -94 183 -104 -3 -6 -3 -8 2 -4 12 11 87 -31 79
-44 -4 -6 -3 -8 4 -4 13 8 108 -42 104 -55 -1 -5 1 -8 5 -7 16 4 53 -14 48
-23 -3 -5 0 -6 8 -4 7 3 30 -6 51 -20 20 -14 41 -25 45 -25 5 0 11 -7 15 -15
3 -8 12 -15 19 -15 8 0 22 -9 32 -20 17 -19 17 -20 -1 -20 -14 0 -10 -7 19
-31 28 -23 35 -34 28 -47 -6 -11 -4 -20 7 -28 8 -6 17 -20 19 -30 12 -56 14
-71 14 -94 -1 -63 -17 -84 -46 -60 -8 7 -15 8 -15 4 0 -9 39 -38 52 -39 15 0
20 -15 5 -15 -9 0 -17 -7 -17 -16 0 -10 5 -14 15 -10 12 4 14 0 8 -22 -6 -26
-25 -52 -38 -52 -3 0 -3 5 0 10 3 6 2 10 -3 10 -5 0 -12 -9 -15 -20 -3 -11
-11 -20 -19 -19 -10 0 -10 2 0 6 14 5 17 33 3 33 -6 0 -13 -4 -16 -10 -4 -6
-15 -2 -27 10 -12 11 -26 20 -30 20 -5 0 -6 5 -3 10 4 6 1 9 -7 8 -7 -2 -12 2
-11 8 1 7 -10 15 -24 19 -22 5 -24 8 -12 16 11 8 10 9 -6 7 -11 -1 -26 1 -32
5 -7 4 -23 3 -35 -3 l-23 -11 23 17 c32 23 27 38 -6 17 -27 -17 -27 -17 -9 3
9 11 17 28 17 38 0 11 -6 16 -17 14 -10 -2 -17 3 -15 9 1 7 -6 21 -16 31 -22
22 -56 37 -46 20 5 -8 2 -9 -10 -5 -15 6 -29 -12 -36 -48 -1 -5 -7 -17 -15
-25 -7 -8 -16 -24 -19 -35 -4 -11 -18 -33 -32 -50 l-26 -30 6 30 c31 153 35
189 27 250 -12 79 -45 160 -63 149 -11 -6 -11 -5 0 8 10 13 8 18 -13 32 l-26
17 6 -53 c4 -29 9 -59 11 -67 3 -8 -1 -18 -8 -23 -10 -6 -10 -10 -1 -16 10 -6
10 -17 3 -42 -5 -19 -7 -44 -4 -55 4 -11 4 -17 0 -14 -3 3 -18 46 -32 95 -14
49 -39 115 -55 148 -32 63 -34 70 -20 61 5 -3 12 -1 16 5 3 5 1 10 -4 10 -6 0
-14 0 -18 1 -5 0 -25 26 -45 58 -37 59 -111 130 -168 164 -17 10 -30 13 -30 7
0 -6 11 -15 24 -20 49 -18 150 -132 193 -215 52 -102 92 -233 98 -321 2 -40 1
-59 -3 -44 -29 92 -99 168 -222 240 -41 24 -78 48 -82 54 -4 6 -8 -1 -8 -15 0
-17 13 -42 35 -65 51 -57 148 -220 139 -235 -4 -7 -3 -10 4 -5 6 3 20 -11 33
-31 13 -21 38 -57 57 -81 31 -37 34 -47 29 -84 -3 -24 -11 -44 -16 -46 -6 -2
-11 -11 -11 -19 0 -20 -11 -11 -14 11 -1 8 -14 34 -29 57 -15 22 -27 45 -27
50 0 5 -4 9 -8 9 -14 0 -127 145 -123 159 2 13 1 13 -15 1 -15 -13 -16 -13
-11 5 6 16 2 20 -18 21 -25 2 -25 2 -25 -91 0 -79 3 -94 20 -110 11 -10 17
-22 13 -28 -4 -6 -1 -7 6 -2 14 8 83 -53 75 -67 -3 -4 1 -8 8 -8 18 0 81 -64
72 -73 -4 -4 429 -7 961 -7 l969 0 -24 25 c-14 14 -48 44 -76 66 -43 33 -53
46 -58 81 -9 57 -31 89 -89 134 -143 112 -172 140 -190 194 -12 34 -37 72 -68
105 -27 29 -49 55 -49 60 0 4 -16 34 -36 67 -27 45 -53 70 -110 109 -51 34
-78 60 -88 83 -8 20 -25 37 -45 46 -20 8 -37 25 -45 45 -8 17 -36 49 -64 71
-28 21 -50 44 -48 49 6 23 84 16 160 -14 121 -49 196 -38 230 33 16 34 69 86
87 86 5 0 11 10 14 23 4 13 18 28 35 34 22 8 29 18 32 44 3 31 6 33 59 44 81
16 130 51 98 71 -6 3 -24 27 -40 52 l-29 46 32 18 c18 9 39 17 46 18 7 0 33
14 58 30 24 17 44 28 44 25 0 -3 -21 -29 -47 -58 -27 -28 -39 -45 -28 -38 11
8 39 35 62 60 53 58 49 23 -6 -40 -36 -43 -28 -45 19 -5 l25 21 -25 -28 c-13
-16 -40 -37 -58 -49 -45 -28 -32 -36 15 -8 l38 22 -35 -32 -35 -33 50 27 c65
35 72 40 130 111 27 33 52 64 56 69 4 5 4 -8 -1 -27 -7 -32 -27 -67 -69 -123
-9 -11 12 9 46 45 35 36 77 91 95 121 30 50 33 62 33 141 0 71 2 83 12 69 24
-33 34 -74 34 -131 1 -72 -21 -118 -75 -165 -39 -34 -39 -35 -9 -20 18 9 42
30 54 46 12 16 26 27 30 24 4 -2 11 1 15 7 4 8 3 9 -4 5 -14 -9 -15 4 -2 24 9
13 10 13 10 0 1 -8 8 -1 17 15 27 49 22 139 -10 210 -15 33 -36 69 -45 80 -16
19 -16 19 2 5 11 -8 32 -35 48 -59 15 -25 28 -40 28 -34 0 14 -54 89 -99 137
-20 21 -29 35 -21 31 54 -30 104 -72 132 -113 26 -38 32 -57 32 -99 0 -29 4
-47 8 -40 15 23 8 107 -12 147 -20 39 -113 125 -224 208 -34 24 -60 49 -58 54
1 5 -3 6 -9 2 -6 -3 -14 -3 -18 2 -9 13 -90 68 -128 88 -45 22 -56 19 -13 -4
45 -25 37 -25 -36 1 -32 11 -93 22 -134 25 l-75 4 75 -21 c41 -11 93 -27 115
-34 l40 -13 -60 4 c-59 3 -59 3 -15 -6 25 -5 77 -18 115 -30 77 -22 83 -21
-70 -4 -26 3 -14 -3 33 -15 69 -19 141 -50 82 -36 -16 4 -9 -3 19 -20 45 -26
50 -32 97 -97 19 -27 23 -41 16 -54 -9 -16 -11 -15 -22 5 -6 13 -14 20 -17 17
-6 -6 -118 93 -118 105 0 4 -4 11 -9 16 -5 5 -6 3 -2 -4 4 -7 2 -13 -4 -13 -6
0 -8 -5 -4 -12 4 -7 3 -8 -5 -4 -6 4 -8 12 -5 18 4 6 1 9 -7 6 -8 -3 -34 5
-59 17 -25 13 -65 28 -88 35 -24 6 -51 13 -60 16 -13 5 -13 2 3 -12 l20 -17
-20 8 c-41 14 -151 35 -191 35 -23 0 -63 3 -90 8 -47 7 -44 7 41 12 50 3 94 2
99 -2 6 -4 26 -7 45 -7 l36 2 -40 7 c-33 6 -26 7 40 9 104 1 88 18 -27 27 -48
4 -85 11 -82 15 3 5 15 10 27 11 12 1 -5 4 -38 7 -33 3 -73 2 -89 -4 -20 -7
-30 -7 -33 0 -2 6 -24 9 -51 6 -26 -2 -44 0 -41 3 12 12 207 36 304 37 55 0
96 2 90 4 -83 26 -127 36 -142 32 -13 -3 -11 -5 7 -6 14 -1 32 -6 40 -11 10
-7 -11 -10 -70 -10 -47 0 -95 -3 -106 -6 -13 -3 -27 0 -35 9 -12 13 -20 13
-59 1 -56 -17 -60 -17 -36 1 14 11 16 15 5 15 -12 0 -12 2 1 11 12 8 9 9 -13
5 -20 -5 -29 -2 -33 9 -4 9 -16 21 -28 27 -21 11 -21 10 -3 -10 12 -13 15 -22
7 -27 -5 -3 -8 -10 -5 -15 3 -5 1 -11 -5 -15 -5 -3 -10 2 -10 12 0 19 -58 83
-75 83 -5 0 6 -13 25 -29 19 -16 32 -32 29 -36 -4 -3 -13 0 -20 7 -8 7 -23 20
-34 28 -19 14 -19 14 -3 -5 9 -11 19 -33 23 -50 l7 -30 -21 32 c-11 18 -37 43
-58 57 -66 44 -215 68 -283 46z m748 -409 c9 -5 33 -11 53 -14 19 -2 44 -9 55
-15 10 -5 24 -11 29 -12 6 -1 9 -5 8 -9 -1 -4 4 -8 12 -8 8 0 11 5 8 11 -3 6
5 1 19 -12 13 -12 27 -20 30 -16 4 3 11 -4 18 -15 6 -12 15 -19 19 -16 15 8
21 -36 21 -149 l0 -110 -50 -46 c-27 -25 -50 -53 -50 -62 0 -26 27 -81 59
-122 17 -21 31 -42 31 -46 0 -17 -31 -31 -90 -42 -48 -8 -63 -15 -69 -32 -5
-11 -6 -26 -4 -33 7 -19 -36 -35 -76 -29 -29 5 -32 4 -13 -4 34 -14 27 -54
-10 -58 -16 -2 -28 -7 -28 -13 0 -5 -14 -31 -31 -59 -38 -62 -84 -81 -151 -61
-60 18 -343 160 -426 214 -47 31 -68 40 -60 27 7 -11 16 -20 20 -20 4 0 17
-14 29 -32 14 -19 17 -29 8 -24 -7 4 24 -28 69 -72 l84 -80 -71 -56 c-76 -61
-96 -85 -106 -128 -7 -27 -8 -26 -113 64 -187 161 -319 250 -434 293 l-47 17
30 25 c16 14 44 46 61 72 17 25 40 56 52 68 39 41 110 140 120 167 6 16 15 11
70 -42 50 -49 72 -63 105 -68 32 -5 45 -13 57 -35 8 -16 17 -29 19 -29 3 0 5
20 5 45 l0 45 -39 -6 c-53 -8 -97 14 -163 84 -84 89 -97 156 -43 221 54 64
143 66 227 5 29 -20 47 -30 39 -21 -21 26 11 23 34 -3 10 -11 21 -17 26 -15 4
3 11 0 15 -6 5 -8 3 -9 -6 -4 -9 6 -10 2 -5 -16 4 -13 11 -28 16 -34 5 -5 9
-18 9 -30 0 -31 40 -30 68 2 12 14 22 31 22 37 0 6 5 4 10 -4 13 -21 13 5 0
30 -7 13 -7 21 0 25 6 4 10 3 9 -2 -1 -4 1 -21 6 -37 7 -27 9 -28 21 -11 8 11
14 27 14 36 0 10 5 21 12 25 7 5 9 2 4 -7 -4 -8 9 4 30 26 20 22 34 34 30 28
-10 -17 3 -16 23 1 9 7 56 24 104 36 74 20 90 28 102 50 8 15 29 39 47 54 18
14 39 32 47 39 30 25 55 31 79 18z m-494 -1483 c-8 -29 -22 -69 -33 -90 -14
-30 -16 -40 -6 -48 9 -8 25 4 60 45 72 85 82 58 40 -110 -37 -145 -72 -235
-94 -235 -9 0 -11 -7 -8 -22 5 -20 4 -21 -6 -7 -7 9 -19 14 -27 12 -13 -4 -13
-3 0 6 8 6 16 15 16 21 1 5 2 14 3 19 0 5 10 11 21 14 16 4 20 13 19 39 -1 18
-5 42 -10 53 -10 24 -59 271 -59 297 0 13 14 25 43 38 23 10 45 19 48 19 3 1
0 -22 -7 -51z"/>
<path d="M628 1853 c-33 -36 -39 -55 -28 -90 8 -26 8 -25 9 13 1 43 24 77 34
52 4 -8 6 -7 6 4 1 22 36 41 60 33 13 -4 17 -12 13 -30 -4 -22 -1 -25 26 -25
49 0 46 -17 -5 -30 -58 -14 -73 -26 -73 -56 0 -26 28 -48 73 -59 15 -4 41 -20
57 -35 17 -15 30 -24 30 -20 0 5 -5 12 -10 15 -8 5 -8 11 -1 19 7 9 6 19 -5
35 -13 17 -13 25 -3 37 19 23 6 25 -30 3 -22 -13 -31 -25 -27 -35 5 -12 1 -14
-17 -8 -29 8 -57 33 -57 50 0 16 25 31 60 35 17 3 24 0 22 -9 -4 -18 19 -10
32 11 26 41 -44 117 -109 117 -21 0 -39 -9 -57 -27z"/>
<path d="M1515 1797 c77 -29 142 -72 121 -80 -8 -3 -56 1 -107 9 -123 20 -137
17 -85 -20 22 -16 35 -22 27 -12 -19 23 -10 28 38 20 41 -7 42 -8 39 -42 -2
-25 2 -37 12 -39 13 -4 13 -3 0 6 -12 9 -13 11 -1 11 8 0 23 7 33 17 15 13 23
14 43 5 14 -6 25 -8 25 -3 0 5 -6 12 -12 14 -10 4 -10 8 1 16 10 6 21 6 32 0
22 -12 112 -12 105 0 -3 5 -18 12 -33 16 -15 3 -30 10 -33 14 -13 21 -164 82
-212 87 l-53 5 60 -24z"/>
</g>
</svg>
